<?xml version="1.0" standalone="no"?>
<!DOCTYPE svg PUBLIC "-//W3C//DTD SVG 20010904//EN"
 "http://www.w3.org/TR/2001/REC-SVG-20010904/DTD/svg10.dtd">
<svg version="1.0" xmlns="http://www.w3.org/2000/svg"
 width="1280.000000pt" height="1280.000000pt" viewBox="0 0 1280.000000 1280.000000"
 preserveAspectRatio="xMidYMid meet">

<g transform="translate(0.000000,1280.000000) scale(0.100000,-0.100000)"
fill="#000000" stroke="none">
<path d="M8175 10870 c-103 -22 -187 -77 -256 -168 -26 -35 -49 -68 -51 -74
-2 -6 -31 8 -65 31 -109 74 -187 88 -288 50 -69 -25 -148 -100 -176 -165 -12
-29 -21 -74 -22 -114 l-2 -66 -85 -12 c-113 -15 -192 -55 -261 -130 -90 -99
-137 -232 -123 -352 10 -83 49 -197 93 -270 l39 -65 -29 -36 c-69 -88 -90
-208 -50 -294 35 -76 124 -146 233 -185 l53 -18 6 -79 c13 -161 89 -275 260
-391 53 -36 55 -39 64 -118 12 -106 53 -337 74 -422 39 -156 75 -211 174 -266
98 -54 182 -69 347 -64 136 4 141 4 145 -16 18 -92 37 -332 33 -427 -4 -130
-14 -157 -84 -225 l-44 -43 52 -63 c84 -100 219 -233 273 -267 65 -41 93 -40
147 6 77 67 251 280 375 459 l22 30 -65 58 c-35 31 -75 76 -88 99 -28 48 -69
159 -96 262 -10 39 -37 135 -60 214 l-41 144 49 51 c96 100 111 137 113 281 1
118 5 135 27 135 21 0 109 33 172 65 59 30 126 104 134 150 6 30 14 38 57 56
57 25 126 96 158 164 31 66 29 185 -4 267 -14 34 -25 64 -25 68 0 3 21 16 46
28 66 32 148 114 181 180 27 54 28 63 28 192 -1 151 -15 201 -80 290 -34 46
-117 103 -167 115 -31 8 -32 15 -19 120 12 92 -5 199 -41 268 -107 199 -438
315 -642 223 -33 -14 -61 -24 -64 -22 -2 3 -15 38 -29 77 -42 126 -100 202
-190 248 -45 22 -151 33 -208 21z m319 -2290 c30 -11 42 -49 27 -79 -28 -51
-158 -75 -200 -37 -27 25 -27 38 5 75 37 44 112 63 168 41z m-744 -120 c53
-36 24 -104 -48 -112 -51 -6 -117 9 -137 32 -64 71 98 141 185 80z m774 -216
c13 -33 5 -101 -18 -149 -46 -99 -171 -185 -319 -220 -92 -22 -101 -21 -92 13
15 59 83 178 134 234 55 60 138 108 217 127 58 13 71 13 78 -5z"/>
<path d="M4425 9911 c-137 -23 -232 -68 -299 -141 -25 -29 -46 -55 -46 -59 0
-3 -37 -4 -82 -3 -281 12 -529 -175 -693 -521 -25 -53 -84 -211 -131 -353
-144 -433 -169 -470 -484 -717 -213 -167 -288 -243 -334 -339 -52 -109 -57
-191 -23 -364 38 -192 39 -199 26 -251 -16 -61 -83 -130 -194 -198 -226 -138
-332 -221 -405 -320 -47 -63 -92 -153 -114 -225 -19 -65 -46 -219 -46 -266 0
-61 30 -179 61 -239 l30 -60 -43 -35 c-192 -156 -316 -329 -367 -511 -29 -105
-29 -270 0 -365 43 -140 113 -247 238 -367 81 -77 81 -77 97 -153 19 -93 59
-167 123 -227 58 -54 107 -81 198 -105 66 -18 70 -21 124 -93 128 -168 320
-322 553 -443 l70 -36 13 33 c35 81 94 107 158 67 35 -22 74 -98 76 -147 0
-18 14 13 38 82 64 187 116 265 176 265 46 0 51 -19 46 -165 -3 -66 -5 -165
-5 -220 l-1 -100 50 -13 c28 -7 97 -22 154 -33 l104 -22 33 39 c63 74 117 189
155 329 31 117 34 111 -103 231 -246 214 -532 411 -893 611 -79 44 -83 54 -84
187 l-1 68 33 -6 c17 -4 95 -10 172 -13 207 -8 391 26 541 98 l61 30 73 -29
74 -29 26 41 c58 91 133 126 229 107 71 -14 129 -43 183 -90 l44 -39 56 68
c62 74 128 117 232 151 l65 21 6 67 c24 255 90 399 192 416 92 15 162 -30 189
-121 23 -80 3 -112 -88 -144 -27 -9 -28 -12 -28 -82 0 -40 -4 -89 -9 -108 -5
-19 -12 -54 -15 -77 l-6 -42 49 6 c58 7 101 -14 133 -64 11 -18 23 -33 28 -33
5 0 23 17 40 37 58 72 90 227 70 348 -25 153 -62 232 -203 434 -121 174 -148
238 -150 361 -2 106 19 172 75 235 54 61 107 87 190 93 122 9 160 -28 160
-151 -1 -40 -8 -112 -16 -161 -9 -49 -16 -103 -16 -121 0 -40 39 -115 113
-217 97 -136 151 -271 165 -417 l7 -66 33 51 c18 28 41 59 51 69 19 16 21 16
48 -10 15 -14 65 -44 109 -65 150 -72 320 -108 552 -117 l163 -6 31 37 c16 20
47 45 68 56 l38 20 -1 120 -2 121 -235 3 c-251 4 -346 15 -503 61 -98 28 -174
63 -198 91 -21 24 -39 79 -39 117 0 24 -3 28 -17 22 -58 -24 -72 -28 -87 -22
-23 9 -20 53 9 115 14 30 25 56 25 57 0 2 -12 -3 -27 -11 -75 -38 -87 -6 -37
94 22 42 40 80 42 83 2 4 -17 18 -41 32 -77 46 -119 130 -121 246 l-1 66 -31
-33 c-79 -80 -84 13 -11 223 79 230 186 476 255 585 19 30 62 83 95 117 56 59
58 63 34 63 -39 0 -77 17 -77 35 0 19 51 42 126 57 l55 11 -21 22 c-48 51 -3
80 78 50 26 -10 52 -21 57 -25 6 -4 35 -21 66 -38 l55 -31 35 25 36 25 -18 57
c-10 31 -25 88 -34 127 -23 104 -48 146 -156 262 -155 166 -202 284 -248 618
-12 83 -30 214 -41 292 -56 401 -140 623 -295 779 -105 106 -216 170 -366 209
-67 18 -237 27 -304 16z m-200 -852 c44 -60 181 -189 250 -234 132 -87 277
-118 426 -92 48 8 109 26 137 40 l50 25 6 -41 c3 -23 8 -128 12 -232 11 -308
-20 -554 -85 -682 -100 -198 -354 -452 -500 -501 -51 -18 -158 -14 -221 8 -30
10 -57 16 -60 13 -3 -2 -7 -73 -8 -158 -3 -139 -2 -156 17 -194 21 -40 96
-108 153 -137 15 -8 28 -20 28 -27 0 -7 -16 -46 -36 -87 -60 -125 -139 -210
-249 -265 -187 -94 -414 -99 -586 -13 -72 36 -176 131 -229 208 -45 66 -90
154 -90 174 0 9 42 35 103 65 243 119 332 215 404 441 28 87 39 139 58 267
l13 92 -34 83 c-18 46 -36 97 -40 115 -5 26 -11 32 -42 38 -63 12 -155 54
-189 87 -51 49 -76 120 -77 213 0 67 4 88 25 124 70 126 179 139 284 34 60
-60 85 -108 100 -191 19 -105 32 -146 55 -174 15 -19 21 -21 32 -10 16 16 15
361 -2 522 l-11 105 28 20 c102 72 184 198 219 334 10 39 21 71 24 71 3 0 19
-19 35 -41z m-1480 -3017 c19 -30 74 -158 109 -256 5 -15 13 -17 42 -12 19 4
78 7 130 7 93 0 94 0 94 24 0 55 82 234 125 275 l22 21 32 -26 c17 -15 31 -31
31 -37 0 -5 9 -23 20 -38 26 -36 50 -114 50 -160 -1 -19 -7 -64 -15 -100 l-13
-64 29 -37 c89 -113 141 -352 112 -522 -27 -168 -494 -304 -824 -241 -185 35
-209 68 -217 301 -5 176 9 261 63 367 28 56 30 65 19 92 -20 47 -27 145 -15
209 14 76 72 196 112 229 37 31 57 24 94 -32z"/>
<path d="M4138 8780 c-87 -89 -78 -135 19 -95 67 28 103 62 103 99 0 17 -5 37
-12 44 -24 24 -53 11 -110 -48z"/>
<path d="M4226 8507 c-27 -20 -34 -108 -12 -142 36 -54 86 -15 86 67 0 35 -6
54 -20 68 -24 24 -30 24 -54 7z"/>
<path d="M4884 8494 c-19 -29 -22 -101 -5 -133 7 -13 22 -21 36 -21 44 0 71
90 44 143 -24 44 -51 48 -75 11z"/>
<path d="M4192 7942 c-9 -6 -12 -30 -10 -81 l3 -73 100 -2 c76 -1 111 -7 145
-22 59 -27 104 -75 120 -127 8 -23 15 -44 16 -46 7 -9 108 65 140 102 41 49
41 73 -3 103 -119 80 -464 178 -511 146z"/>
<path d="M3173 5470 c-33 -20 -44 -52 -22 -65 5 -4 27 5 48 19 45 31 56 32
100 5 48 -29 53 -13 7 27 -46 40 -85 44 -133 14z"/>
<path d="M2714 5426 c-31 -14 -81 -72 -71 -83 4 -3 20 6 37 21 35 29 81 34
120 11 38 -22 60 -19 60 8 0 41 -91 67 -146 43z"/>
<path d="M2981 5341 c-14 -4 -26 -12 -29 -19 -5 -16 46 -62 69 -62 19 0 49 46
49 75 0 16 -43 19 -89 6z"/>
<path d="M3157 5164 c-22 -30 -50 -30 -89 -3 l-30 22 -22 -26 c-44 -52 -85
-59 -121 -22 -25 28 -37 22 -24 -12 18 -48 99 -55 144 -13 19 18 27 20 43 11
54 -29 128 1 120 47 -3 19 -4 19 -21 -4z"/>
<path d="M6663 7862 c-24 -16 -79 -172 -99 -282 -44 -247 25 -272 107 -37 l28
82 -6 -126 c-7 -143 -2 -179 27 -179 28 0 56 47 79 131 l20 74 1 -75 c1 -41 4
-86 6 -100 6 -34 33 -72 47 -68 21 7 57 91 76 178 l18 85 7 -80 c8 -101 25
-188 39 -197 45 -28 84 125 87 339 1 92 -1 104 -20 123 -15 15 -29 20 -45 16
-18 -5 -28 2 -49 29 -31 41 -39 42 -73 15 -34 -26 -37 -26 -56 15 -20 43 -52
46 -94 11 l-29 -25 -11 29 c-11 30 -43 53 -60 42z"/>
<path d="M5926 7143 c-59 -15 -138 -95 -121 -123 3 -5 29 3 58 19 93 53 148
49 230 -13 43 -33 65 -33 73 0 10 40 -10 69 -67 98 -51 25 -119 33 -173 19z"/>
<path d="M6598 7140 c-74 -22 -116 -68 -104 -114 9 -35 27 -33 87 9 82 56 143
56 231 -1 45 -29 48 -29 48 -5 0 29 -49 81 -95 102 -41 19 -120 23 -167 9z"/>
<path d="M6246 6879 c-101 -15 -120 -57 -66 -142 32 -51 109 -107 147 -107 56
0 149 67 189 136 42 71 20 97 -93 114 -77 11 -95 11 -177 -1z"/>
<path d="M6038 6525 c-7 -7 4 -52 22 -84 19 -36 70 -61 123 -61 53 0 113 23
130 51 10 16 14 14 50 -14 36 -29 45 -32 112 -32 64 0 77 3 100 25 28 26 55
77 55 105 0 25 -17 17 -30 -14 -41 -101 -173 -107 -236 -12 -15 23 -30 41 -33
41 -4 0 -21 -20 -38 -44 -67 -95 -182 -86 -235 17 -8 15 -17 25 -20 22z"/>
<path d="M6910 5654 c-84 -38 -184 -70 -300 -94 -58 -13 -111 -24 -117 -26
-14 -4 -18 -135 -7 -217 6 -40 10 -47 45 -62 21 -10 47 -27 59 -40 20 -22 20
-22 98 -5 147 32 279 84 325 127 24 24 27 33 27 97 0 100 -19 197 -43 224 -25
26 -19 27 -87 -4z"/>
<path d="M4921 4545 c-30 -24 -92 -63 -138 -85 l-83 -42 0 -45 c0 -73 -42
-220 -91 -314 -11 -23 -19 -43 -16 -45 7 -7 154 181 220 282 57 88 174 295
165 293 -1 0 -27 -20 -57 -44z"/>
<path d="M10073 3601 c-21 -19 -69 -64 -108 -100 -70 -66 -234 -215 -310 -283
-101 -89 -242 -199 -264 -205 -35 -9 -159 30 -288 92 -127 60 -181 97 -189
130 -9 36 46 133 142 250 43 54 39 61 -21 34 -40 -17 -193 -48 -325 -65 -320
-40 -869 -8 -1132 66 -27 8 -50 8 -80 0 -45 -11 -146 -48 -163 -60 -5 -3 -38
-17 -73 -31 -56 -21 -63 -27 -71 -59 -14 -61 -51 -257 -51 -273 0 -9 37 -42
83 -73 211 -148 451 -340 637 -508 220 -200 532 -508 523 -516 -9 -7 -74 -32
-218 -85 -185 -68 -174 -62 -177 -107 l-3 -41 -65 -18 c-101 -28 -260 -57
-441 -82 l-165 -23 -50 23 c-68 30 -115 29 -153 -3 -52 -44 -39 -85 39 -126
l45 -23 -48 -7 c-54 -7 -77 -22 -77 -48 0 -22 17 -36 53 -45 l28 -7 -30 -19
c-59 -36 -65 -95 -10 -106 36 -7 37 -16 4 -31 -25 -11 -42 -52 -30 -71 3 -6
28 -11 54 -11 26 0 62 -7 80 -16 60 -30 101 -29 202 6 84 29 107 33 209 34 63
1 147 -3 186 -8 62 -8 76 -6 120 13 53 24 111 74 124 107 5 12 10 93 11 180 3
169 15 251 40 264 9 5 78 29 155 54 235 76 592 198 959 329 193 69 366 129
385 135 19 6 96 29 170 51 212 65 426 125 670 187 124 31 229 60 234 65 18 16
-281 198 -562 342 -99 51 -180 97 -181 102 -1 10 36 54 292 346 130 150 151
179 126 179 -6 0 -25 6 -42 14 -18 8 -71 30 -119 49 l-86 34 -39 -36z"/>
</g>
</svg>
